<mxfile host="app.diagrams.net" agent="Mozilla/5.0 (Windows NT 10.0; Win64; x64) AppleWebKit/537.36 (KHTML, like Gecko) Chrome/129.0.0.0 Safari/537.36" version="27.0.5">
  <diagram name="第 1 页" id="BRPcPqmaCWwWCj-gUazX">
    <mxGraphModel dx="888" dy="489" grid="1" gridSize="10" guides="1" tooltips="1" connect="1" arrows="1" fold="1" page="1" pageScale="1" pageWidth="2336" pageHeight="1654" math="0" shadow="0">
      <root>
        <mxCell id="0" />
        <mxCell id="1" parent="0" />
        <mxCell id="q_G4mpnBGwdDq3wz1Jky-3" value="Pool" style="swimlane;childLayout=stackLayout;resizeParent=1;resizeParentMax=0;startSize=20;html=1;" vertex="1" parent="1">
          <mxGeometry x="610.0000000000005" y="200" width="360" height="480" as="geometry" />
        </mxCell>
        <mxCell id="q_G4mpnBGwdDq3wz1Jky-4" value="Lane 1" style="swimlane;startSize=20;html=1;" vertex="1" parent="q_G4mpnBGwdDq3wz1Jky-3">
          <mxGeometry y="20" width="120" height="460" as="geometry" />
        </mxCell>
        <mxCell id="q_G4mpnBGwdDq3wz1Jky-5" value="Lane 2" style="swimlane;startSize=20;html=1;" vertex="1" parent="q_G4mpnBGwdDq3wz1Jky-3">
          <mxGeometry x="120" y="20" width="120" height="460" as="geometry" />
        </mxCell>
        <mxCell id="q_G4mpnBGwdDq3wz1Jky-6" value="Lane 3" style="swimlane;startSize=20;html=1;" vertex="1" parent="q_G4mpnBGwdDq3wz1Jky-3">
          <mxGeometry x="240" y="20" width="120" height="460" as="geometry" />
        </mxCell>
      </root>
    </mxGraphModel>
  </diagram>
</mxfile>
